<svg width="130" height="130" viewBox="0 0 130 130" fill="none" xmlns="http://www.w3.org/2000/svg">
<g clip-path="url(#clip0_27612_635)">
<path d="M65 0C100.898 1.28852e-06 130 29.1015 130 65C130 100.898 100.898 130 65 130C29.1015 130 1.28869e-06 100.898 0 65C0 53.8628 2.80355 43.3737 7.74414 34.2061C5.2037 33.8815 3.01893 31.9181 2.77832 29.1621C2.49897 25.9601 4.98968 23.3568 8.02734 23.0918L15.8135 22.4121L17.7451 20.3682C29.5918 7.82948 46.3836 0 65 0ZM65 2.5C47.0993 2.5 30.9557 10.0252 19.5615 22.085L21.0029 21.96C22.1597 21.8593 23.3062 22.1039 24.2959 22.6348C34.8547 12.4876 49.1993 6.25 65 6.25C97.4466 6.25016 123.75 32.5534 123.75 65C123.75 97.4466 97.4466 123.75 65 123.75C32.5533 123.75 6.25 97.4467 6.25 65C6.25 53.4872 9.56167 42.7479 15.2842 33.6826L10.6689 34.085C5.47025 43.2017 2.5 53.7541 2.5 65C2.5 99.5178 30.4822 127.5 65 127.5C99.5177 127.5 127.5 99.5177 127.5 65C127.5 30.4823 99.5177 2.50016 65 2.5ZM104.505 73.5293C103.238 72.9354 101.73 73.4826 101.137 74.751C90.0911 98.3817 62.9961 103.357 42.7148 93.6963C41.4516 93.0947 39.9406 93.6319 39.3398 94.8965C38.7391 96.1611 39.2759 97.6745 40.5391 98.2764C62.7018 108.834 93.2026 103.693 105.726 76.9014C106.318 75.633 105.772 74.1231 104.505 73.5293ZM66.0498 74.8711C65.6047 69.7697 60.8864 66.0147 55.5117 66.4834C50.1368 66.9523 46.1399 71.4678 46.585 76.5693C47.03 81.6709 51.7481 85.4269 57.123 84.958C62.498 84.4891 66.4949 79.9727 66.0498 74.8711ZM90.8643 72.6445C90.4192 67.543 85.7011 63.7869 80.3262 64.2559C74.9515 64.7249 70.9556 69.2405 71.4004 74.3418C71.8455 79.4434 76.5635 83.1994 81.9385 82.7305C87.3132 82.2614 91.3091 77.7458 90.8643 72.6445ZM95.7871 25.3408C95.107 24.648 94.1254 24.2944 93.127 24.3818L25.9111 30.2461L24.5703 26.5098C24.0903 25.1701 22.7088 24.3206 21.2197 24.4502L8.24414 25.582C6.45256 25.7383 5.1203 27.2439 5.26855 28.9443C5.41691 30.6448 6.98961 31.8965 8.78125 31.7402L19.2207 30.8301L31.3496 64.6152L31.3662 64.6621L31.376 64.6885L32.542 66.1562C33.1029 67.6089 35.1878 66.8453 36.8311 66.2432C36.9956 66.1829 37.1558 66.124 37.3096 66.0693C37.4607 66.0156 37.8918 66.0005 38.126 65.9922H38.1279C38.1951 65.9898 38.2457 65.9873 38.2686 65.9854L38.7236 65.9463L89.708 55.7051C91.0318 55.4378 92.0514 54.4224 92.2705 53.1543L96.6094 27.9561C96.7793 27.0065 96.4757 26.0398 95.7871 25.3408Z" fill="#00CED1"/>
</g>
<defs>
<clipPath id="clip0_27612_635">
<rect width="130" height="130" fill="white"/>
</clipPath>
</defs>
</svg>
